Simulation
nRows=16
nColumns=15
endheader
time  TH_x TH_y TH_z SC_y  SC_z  SC_x  AC_y  AC_z  AC_x  GH_y  GH_z  GH_yy  EL_x  PS_y
0.0  0.000000  0.000000  0.000000  -30.764619997990597  -1.7980149121093894  11.71795298643469  57.08165135608911  -6.26110993805655  -12.953431984735625  17.806752027725995  -0.08019892140198462  6.210404942994877  25.52864279465604  0.000000
0.015  0.000000  0.000000  0.000000  -30.85661619690361  -1.8955125152988088  11.756755013467883  57.148075250491736  -6.238448079227693  -12.956596173895889  17.72580339920538  0.18546201707213433  6.126297059308614  25.556320482264432  0.000000
0.03  0.000000  0.000000  0.000000  -30.836541039914792  -1.8754310960315377  11.809304273289378  57.207721318395485  -6.273871706455427  -12.943380687205986  17.745283746758652  0.4863093424896378  6.077707571004561  25.575215686977913  0.000000
0.045  0.000000  0.000000  0.000000  -30.866577042566743  -1.8367613108462844  11.882746674653173  57.22593637146781  -6.317985534563068  -12.938806159666564  17.821812563780597  0.8346281126238261  5.977583368415928  25.559296164163744  0.000000
0.06  0.000000  0.000000  0.000000  -30.905753331488764  -1.8046049388183663  11.966092303718296  57.23383324262855  -6.37016332312603  -12.951061991316624  17.900160418475846  1.229230143479472  5.76367923165183  25.525888736632155  0.000000
0.075  0.000000  0.000000  0.000000  -30.9626524616438  -1.7759184152954384  12.064338444106381  57.2484699158422  -6.428339821152729  -12.97317566307764  18.00410616386218  1.6734847642338102  5.46726699893711  25.47540074421908  0.000000
0.09  0.000000  0.000000  0.000000  -31.017714075236334  -1.7454005853566996  12.17943095985135  57.257409719781016  -6.4903884645946075  -13.002407746156413  18.1214157513365  2.154403677177476  5.0883518355111175  25.418582849406498  0.000000
0.105  0.000000  0.000000  0.000000  -31.07319636453645  -1.7110036518544482  12.30816755645024  57.27329241254681  -6.55770209130344  -13.034966692478072  18.252339259374786  2.677783569199654  4.640732680944613  25.355991547660302  0.000000
0.12  0.000000  0.000000  0.000000  -31.128156836761615  -1.671840771131109  12.45110350878022  57.29000836649603  -6.625850386869606  -13.071164784029818  18.39379738919172  3.2376916051797133  4.135065982989657  25.29195774119159  0.000000
0.135  0.000000  0.000000  0.000000  -31.18079241841883  -1.6272384947268794  12.605796646555243  57.30964371611535  -6.694214628120998  -13.109224379139992  18.541487298870745  3.8330221022416926  3.5793937439969845  25.22443709162537  0.000000
0.15  0.000000  0.000000  0.000000  -31.231918207139227  -1.5780672137626748  12.770747849967098  57.332513345257745  -6.759722927925813  -13.149934377817916  18.692798262244704  4.4610053680773385  2.983037580831928  25.155346421747897  0.000000
0.16499999999999998  0.000000  0.000000  0.000000  -31.280630254811022  -1.5244495747843487  12.94470117024691  57.357308782147484  -6.820720066719742  -13.19263117692753  18.84493562029718  5.118076407304308  2.353798212079384  25.083507372926864  0.000000
0.18  0.000000  0.000000  0.000000  -31.326916044743726  -1.467470566703016  13.12588155914498  57.38553157958659  -6.8755289825603665  -13.237561928017183  18.995113237987447  5.801693384180592  1.6986088327799747  25.009531996641183  0.000000
0.195  0.000000  0.000000  0.000000  -31.370959457576927  -1.4075498433302218  13.313235939212381  57.41620860343739  -6.922407183842509  -13.284384490672215  19.14203864007858  6.508235310493603  1.0247510400737778  24.93313246737895  0.000000
0.21  0.000000  0.000000  0.000000  -31.41259236288699  -1.3451766091614286  13.50459684448508  57.450154974748386  -6.959726241804844  -13.332486848911246  19.283460903074474  7.234889181824082  0.3376210540186266  24.854404667002278  0.000000
0.22499999999999998  0.000000  0.000000  0.000000  -31.45207437165096  -1.2807212617596355  13.698256770708  57.48654867646428  -6.985159359696126  -13.381582312934823  19.41849532361287  7.978477229171791  -0.3567661028213433  24.773400951373628  0.000000
